# xmcd CD database file
# Copyright (C) 1993-1998 Ti Kan
#
# Track frame offsets:
#	150
#	15334
#	29187
#	50277
#	66730
#	84037
#	106187
#	119227
#	153957
#	166167
#	179762
#	199230
#	214265
#
# Disc length: 3017 seconds
#
# Revision: 1
# Processed by: cddbd v1.4b41PL1 Copyright (c) Steve Scherf et al.
# Submitted via: CDValet v3.31 - Copyright (c) 1997 Greg Leichner
#
DISCID=b70bc70d
DTITLE=B.B. and The Blues Shacks - Feelin' Fine Today
DYEAR=1900
DGENRE=
TTITLE0=Nothing Else To Say
TTITLE1=Backstage King
TTITLE2=The World Keeps Going Round
TTITLE3=Feelin' Fine Today
TTITLE4=I Don't Want No Woman
TTITLE5=She's Got Her Eyes On Me
TTITLE6=Alimony Blues
TTITLE7=Halsted St. Blues
TTITLE8=Get No Credit
TTITLE9=Don't Touch My Girl
TTITLE10=T-Bone Shuffle
TTITLE11=I Need Someone
TTITLE12=Baby Don't Come Back
EXTD=
EXTT0=
EXTT1=
EXTT2=
EXTT3=
EXTT4=
EXTT5=
EXTT6=
EXTT7=
EXTT8=
EXTT9=
EXTT10=
EXTT11=
EXTT12=
PLAYORDER=
